<svg fill="#4b5563
" width="192.09" height="62.211" viewBox="0 0 192.09 62.211" xmlns="http://www.w3.org/2000/svg"><g id="svgGroup" stroke-linecap="round" fill-rule="evenodd" font-size="9pt" ><path d="M 36.328 19.141 L 39.258 19.141 L 39.258 2.051 Q 36.914 2.051 36.523 3.516 A 4.184 4.184 0 0 0 36.414 4.031 Q 36.331 4.576 36.328 5.323 A 13.872 13.872 0 0 0 36.328 5.372 A 31.049 31.049 0 0 0 23.639 1.676 A 37.731 37.731 0 0 0 20.703 1.563 A 30.487 30.487 0 0 0 14.041 2.248 Q 9.539 3.256 6.225 5.748 A 18.145 18.145 0 0 0 4.297 7.423 A 13.441 13.441 0 0 0 0.391 16.993 A 13.298 13.298 0 0 0 4.729 26.841 Q 6.517 28.575 9.04 30.066 A 30.253 30.253 0 0 0 9.57 30.372 Q 10.988 31.122 18.107 34.225 A 1205.04 1205.04 0 0 0 20.703 35.352 A 53.966 53.966 0 0 1 24.695 37.311 Q 28.529 39.411 30.524 41.539 A 9.722 9.722 0 0 1 31.836 43.262 A 9.756 9.756 0 0 1 33.105 48.145 A 10.861 10.861 0 0 1 32.176 52.726 Q 31.035 55.214 28.49 56.896 A 14.782 14.782 0 0 1 26.465 58.008 A 16.394 16.394 0 0 1 21.393 59.29 A 19.894 19.894 0 0 1 19.531 59.376 Q 4.59 59.18 2.93 41.114 L 0 41.114 L 0 61.329 Q 2.344 61.329 2.734 59.962 A 4.329 4.329 0 0 0 2.82 59.492 Q 2.93 58.668 2.93 57.13 A 30.092 30.092 0 0 0 19.275 62.102 A 36.327 36.327 0 0 0 20.02 62.11 Q 28.919 62.11 34.63 58.308 A 18.788 18.788 0 0 0 37.402 56.055 A 14.159 14.159 0 0 0 41.602 45.813 A 16.914 16.914 0 0 0 41.602 45.801 A 14.172 14.172 0 0 0 36.546 34.879 A 24.178 24.178 0 0 0 32.227 31.837 A 30.117 30.117 0 0 0 31.26 31.357 Q 28.577 30.073 20.801 26.661 Q 14.014 23.763 11.157 20.747 A 9.086 9.086 0 0 1 9.863 19.044 Q 8.691 16.895 8.691 14.454 Q 8.691 8.963 13.161 6.292 A 13.241 13.241 0 0 1 15.039 5.372 A 15.56 15.56 0 0 1 19.223 4.387 A 19.069 19.069 0 0 1 21.094 4.298 A 19.233 19.233 0 0 1 26.272 4.955 A 13.635 13.635 0 0 1 33.594 9.864 A 13.784 13.784 0 0 1 36.178 16.392 Q 36.354 17.71 36.328 19.141 Z M 153.125 58.692 L 146.094 58.692 L 146.094 39.258 A 23.402 23.402 0 0 1 146.912 32.911 A 17.536 17.536 0 0 1 151.562 25.001 Q 153.248 23.391 154.513 22.985 A 2.771 2.771 0 0 1 155.176 22.852 A 2.428 2.428 0 0 1 156.62 23.353 Q 157.402 23.919 158.106 25.124 A 10.411 10.411 0 0 1 158.203 25.294 A 15.603 15.603 0 0 0 158.925 26.447 Q 159.681 27.535 160.388 28.042 A 2.443 2.443 0 0 0 161.133 28.419 A 3.69 3.69 0 0 0 162.286 28.614 A 3.522 3.522 0 0 0 162.305 28.614 A 4.546 4.546 0 0 0 163.783 28.39 Q 165.454 27.817 166.016 25.782 A 3.69 3.69 0 0 0 166.211 24.628 A 3.522 3.522 0 0 0 166.211 24.61 A 6.396 6.396 0 0 0 165.875 22.462 Q 164.983 19.948 161.719 19.239 A 10.169 10.169 0 0 0 160.536 19.071 A 8.438 8.438 0 0 0 159.863 19.044 Q 154.004 19.044 149.414 24.024 Q 147.266 26.368 145.996 29.298 L 145.605 19.63 L 131.445 19.63 L 131.445 22.071 L 138.77 22.071 L 138.77 52.833 A 12.133 12.133 0 0 1 138.648 54.625 Q 138.321 56.803 137.116 57.73 A 3.109 3.109 0 0 1 136.23 58.204 A 6.814 6.814 0 0 1 135.291 58.434 Q 133.858 58.692 131.445 58.692 L 131.445 61.133 L 155.566 61.133 A 4.699 4.699 0 0 0 155.501 60.314 Q 155.257 58.944 154.102 58.79 Q 153.81 58.717 153.41 58.698 A 6.178 6.178 0 0 0 153.125 58.692 Z M 48.438 19.63 L 48.438 22.071 L 55.273 22.071 L 55.273 49.61 A 20.944 20.944 0 0 0 56.067 54.46 Q 58.305 61.904 66.504 62.208 A 10.724 10.724 0 0 0 71.832 60.933 Q 76.252 58.457 77.734 51.173 L 77.734 50.977 L 75.098 50.489 A 25.594 25.594 0 0 1 73.876 53.781 Q 72.256 57.308 69.959 58.598 A 5.719 5.719 0 0 1 67.969 59.278 A 5.359 5.359 0 0 1 65.265 58.516 Q 62.666 56.88 62.598 51.758 L 62.598 22.071 L 77.734 22.071 L 77.734 19.63 L 62.598 19.63 L 62.598 8.301 L 55.273 10.352 L 55.273 19.63 L 48.438 19.63 Z M 189.648 58.692 L 184.766 58.692 L 184.766 19.63 L 169.629 19.63 L 169.629 22.071 L 177.441 22.071 L 177.441 52.833 Q 177.441 55.122 176.655 56.498 A 3.849 3.849 0 0 1 174.414 58.301 A 8.157 8.157 0 0 1 173.505 58.481 Q 172.528 58.625 171.088 58.67 A 45.993 45.993 0 0 1 169.629 58.692 L 169.629 61.133 L 192.09 61.133 A 4.699 4.699 0 0 0 192.025 60.314 Q 191.781 58.944 190.625 58.79 Q 190.137 58.692 189.648 58.692 Z M 103.516 18.653 A 22.374 22.374 0 0 0 95.044 20.214 A 20.755 20.755 0 0 0 87.891 25.098 A 20.284 20.284 0 0 0 82.151 38.843 A 26.594 26.594 0 0 0 82.129 39.942 A 26.611 26.611 0 0 0 83.179 47.635 A 19.554 19.554 0 0 0 91.113 58.399 A 21.097 21.097 0 0 0 103.223 62.11 A 21.669 21.669 0 0 0 111.549 60.552 A 20.296 20.296 0 0 0 118.75 55.469 Q 124.414 49.415 124.414 40.333 A 26.344 26.344 0 0 0 123.436 32.941 A 19.01 19.01 0 0 0 115.332 22.071 Q 109.961 18.653 103.516 18.653 Z M 90.827 34.276 A 42.481 42.481 0 0 0 90.43 40.333 A 45.436 45.436 0 0 0 90.57 43.978 A 34.318 34.318 0 0 0 91.113 47.95 Q 92.819 55.823 97.831 58.407 A 12.239 12.239 0 0 0 103.516 59.669 A 13.437 13.437 0 0 0 107.129 59.18 A 10.262 10.262 0 0 0 111.003 56.967 Q 114.658 53.64 115.699 46.365 A 45.562 45.562 0 0 0 116.113 39.942 Q 116.113 37.11 115.82 34.766 A 31.555 31.555 0 0 0 115.462 32.574 Q 113.922 24.911 108.985 22.364 A 12.403 12.403 0 0 0 103.223 21.094 A 13.043 13.043 0 0 0 98.73 21.876 A 10.633 10.633 0 0 0 95.723 23.693 Q 91.88 26.998 90.827 34.276 Z M 185.938 5.372 A 5.973 5.973 0 0 0 185.596 3.296 Q 185.01 1.705 183.421 0.762 A 6.843 6.843 0 0 0 182.91 0.489 A 6.672 6.672 0 0 0 181.763 0.123 A 5.163 5.163 0 0 0 180.664 0.001 A 5.777 5.777 0 0 0 178.545 0.37 Q 177.066 0.948 176.154 2.432 A 6.97 6.97 0 0 0 175.781 3.126 A 5.368 5.368 0 0 0 175.293 5.372 Q 175.293 8.674 177.986 10.101 A 6.836 6.836 0 0 0 178.516 10.352 Q 179.59 10.743 180.664 10.743 A 5.745 5.745 0 0 0 182.686 10.406 Q 184.531 9.717 185.449 7.618 A 5.368 5.368 0 0 0 185.938 5.372 Z" vector-effect="non-scaling-stroke"/></g></svg>